<?xml version="1.0" standalone="no"?>
<!DOCTYPE svg PUBLIC "-//W3C//DTD SVG 20010904//EN"
 "http://www.w3.org/TR/2001/REC-SVG-20010904/DTD/svg10.dtd">
<svg version="1.0" xmlns="http://www.w3.org/2000/svg"
 width="1024.000000pt" height="1024.000000pt" viewBox="0 0 1024.000000 1024.000000"
 preserveAspectRatio="xMidYMid meet">
<metadata>
Created by potrace 1.14, written by Peter Selinger 2001-2017
</metadata>
<g transform="translate(0.000000,1024.000000) scale(0.100000,-0.100000)"
fill="#000000" stroke="none">
<path d="M441 10204 c-172 -96 -312 -236 -406 -407 l-35 -64 0 -4613 0 -4613
35 -64 c94 -172 236 -314 408 -408 l64 -35 4613 0 4613 0 64 35 c172 94 314
236 408 408 l35 64 0 4613 0 4613 -35 64 c-94 172 -236 314 -408 408 l-64 35
-4614 0 -4614 0 -64 -36z"/>
</g>
</svg>
